<?xml version="1.0" standalone="no"?>
<svg xmlns="http://www.w3.org/2000/svg" viewBox="0 0 124 70" width="124" height="70"><g fill="#000000" color="#000000" transform="translate(44.001 0) scale(0.6481482) "><svg width="54.0" height="54.0" x="0.0" y="0.0" viewBox="0 0 54 54"><path fill="currentColor" fill-rule="evenodd" d="M14.31 12.015c.81-.09 1.08.27 1.215.54-.81.045-1.53-.045-1.98-.36.18-.045.45-.135.765-.18M27 0c7.47 0 14.22 3.015 19.08 7.92C50.985 12.78 54 19.53 54 27c0 7.47-3.015 14.22-7.92 19.08C41.22 50.985 34.47 54 27 54c-7.47 0-14.22-3.015-19.08-7.92C3.015 41.22 0 34.47 0 27c0-3.06.54-5.985 1.485-8.73.27-.72.54-1.395.81-2.07.045-.09.135-.27.36-.045.36.36.855.405 1.26.135-.27-.045-.63-.225-.9-.495-.315-.27-.45-.63-.495-.9-.045.09-1.575-.45-1.395-1.98 1.62 1.035 1.935-.495 3.285-.63-1.395-.54-1.17-2.925-1.17-2.925s1.035 1.35 2.61 1.44c-.63-.9.225-1.665.225-1.665s.315.45.81.765c.855.495 2.205.54 3.51.54.405 0 .855-.045 1.26-.045h.225a13.18 13.18 0 0 1 1.89 0 2.906 2.906 0 0 1 2.52 1.845s0 .09.045.18l1.08-.135c.72-.045 1.485-.135 2.205-.18 1.035-.045 1.845.36 2.43.9.63.54.855 1.35.945 1.755-.495-.27-2.205-.36-3.69.18-1.89.72-3.15 2.025-3.42 2.34-.45.54-.855 1.035-1.215 1.62-.27.45-.54.9-.765 1.395a14.813 14.813 0 0 0-1.575 6.3v.315c0 4.095 1.665 7.785 4.32 10.44a14.723 14.723 0 0 0 10.44 4.32c4.095 0 7.785-1.665 10.44-4.32a14.726 14.726 0 0 0 4.32-10.44c0-4.095-1.665-7.785-4.32-10.44a14.725 14.725 0 0 0-10.44-4.32c-1.26 0-2.475.135-3.645.45-.09 0-.135.045-.225.045a3.839 3.839 0 0 0-1.44-1.17c-.315-.18-.495-.225-.72-.315-.36-.09-.765-.18-1.125-.18.135-.045.225-.09.36-.135 2.16-.9 4.455-1.35 6.795-1.35 2.385 0 4.635.45 6.795 1.35 2.07.855 3.915 2.115 5.535 3.735 1.62 1.62 2.88 3.465 3.735 5.535.9 2.16 1.35 4.41 1.35 6.795s-.45 4.635-1.35 6.795c-.855 2.07-2.115 3.915-3.735 5.535-1.62 1.62-3.465 2.88-5.535 3.735-2.16.9-4.455 1.35-6.795 1.35-2.385 0-4.635-.45-6.795-1.35-.315-.09-.63-.27-.945-.405-.36-.135-1.125-.495-1.35.09-.225.54.27.99.63 1.17.36.18.72.36 1.08.495 2.295.99 4.77 1.485 7.335 1.485 2.565 0 4.995-.495 7.335-1.485 2.25-.945 4.23-2.295 5.985-4.05 1.755-1.71 3.105-3.735 4.05-5.985.99-2.34 1.485-4.77 1.485-7.335 0-2.565-.495-4.995-1.485-7.335-.945-2.25-2.295-4.23-4.05-5.985-1.71-1.755-3.735-3.105-5.985-4.05A18.588 18.588 0 0 0 27.045 8.1c-2.565 0-4.995.495-7.335 1.485-.99.405-1.935.9-2.835 1.485l-.09-.09a3.64 3.64 0 0 0-.945-.9 20.833 20.833 0 0 1 3.285-1.755A20.332 20.332 0 0 1 27 6.75c2.745 0 5.4.54 7.875 1.575a20.886 20.886 0 0 1 6.435 4.365c1.89 1.845 3.33 4.005 4.365 6.435A20.332 20.332 0 0 1 47.25 27c0 2.745-.54 5.4-1.575 7.875a20.878 20.878 0 0 1-4.365 6.435c-1.845 1.89-4.005 3.33-6.435 4.365A20.332 20.332 0 0 1 27 47.25c-2.745 0-5.4-.54-7.74-1.665-.45-.18-.9-.36-1.305-.585-.315-.135-.99-.45-1.26.045s.27 1.035.585 1.215c.45.225.945.45 1.44.675a21.86 21.86 0 0 0 8.46 1.71c2.925 0 5.805-.585 8.46-1.71a21.59 21.59 0 0 0 6.885-4.635 21.586 21.586 0 0 0 4.635-6.885 21.86 21.86 0 0 0 1.71-8.46c0-2.925-.585-5.805-1.71-8.46a21.58 21.58 0 0 0-4.635-6.885 21.59 21.59 0 0 0-6.885-4.635 21.857 21.857 0 0 0-8.46-1.71c-2.925 0-5.805.585-8.46 1.71-1.53.63-2.97 1.44-4.32 2.43-.405-.09-1.08-.18-2.07-.135a22.911 22.911 0 0 1 14.805-5.4c12.735 0 23.085 10.35 23.085 23.085 0 6.39-2.61 12.15-6.795 16.335-4.185 4.185-9.945 6.795-16.335 6.795-3.78 0-7.38-.9-10.575-2.565-.36-.18-1.08-.405-1.35.135-.27.495.225.9.54 1.08.585.315 1.17.585 1.8.855 3.015 1.305 6.21 1.935 9.54 1.935 3.285 0 6.525-.675 9.54-1.935a24.796 24.796 0 0 0 7.785-5.265c2.25-2.25 4.05-4.86 5.265-7.785 1.305-3.015 1.935-6.255 1.935-9.54 0-3.285-.675-6.525-1.935-9.54a24.796 24.796 0 0 0-5.265-7.785c-2.25-2.25-4.86-4.05-7.785-5.265-3.015-1.305-6.21-1.935-9.54-1.935-3.285 0-6.525.675-9.54 1.935-2.835 1.17-5.355 2.88-7.56 4.995-1.935-.045-2.7-.54-2.79-.63.09-.09.18-.225.27-.315C12.33 3.24 19.26 0 27 0zm0 19.62l1.71 5.175h5.445l-4.41 3.24 1.665 5.22L27 30.06l-4.41 3.195 1.665-5.22-4.41-3.24h5.445L27 19.62z"></path></svg></g><line x1="45.05000000000001" y1="41" x2="77.95000000000002" y2="41" stroke="#FA7930" stroke-linecap="round"></line><path fill="#FA7930" fill-rule="nonzero" d="M5.62 18.67Q2.52 18.67 1.26 15.86Q0 13.06 0 8.95L0 8.95Q0 6.74 0.58 4.70Q1.15 2.66 2.44 1.33Q3.72 0 5.69 0L5.69 0Q7.20 0 8.34 0.94Q9.48 1.87 10.09 3.37Q10.70 4.87 10.70 6.50L10.70 6.50L7.30 6.67Q7.30 5.59 6.94 4.21Q6.58 2.83 5.50 2.83L5.50 2.83Q4.37 2.83 3.94 4.63Q3.50 6.43 3.50 8.95L3.50 8.95Q3.50 12.07 3.98 13.96Q4.46 15.84 5.83 15.84L5.83 15.84Q6.79 15.84 7.20 14.70Q7.61 13.56 7.73 11.93L7.73 11.93L10.73 12.22Q10.73 13.94 10.15 15.42Q9.58 16.90 8.42 17.78Q7.27 18.67 5.62 18.67L5.62 18.67ZM17.42 18.65Q15.00 18.65 13.69 16.73Q12.38 14.81 12.38 11.62L12.38 11.62Q12.38 8.45 13.68 6.55Q14.98 4.66 17.42 4.66L17.42 4.66Q19.85 4.66 21.18 6.55Q22.51 8.45 22.51 11.62L22.51 11.62Q22.51 14.78 21.18 16.72Q19.85 18.65 17.42 18.65L17.42 18.65ZM17.42 16.15Q18.50 16.15 18.82 14.83Q19.13 13.51 19.13 11.59L19.13 11.59Q19.13 9.67 18.82 8.35Q18.50 7.03 17.42 7.03L17.42 7.03Q16.34 7.03 16.06 8.28Q15.77 9.53 15.77 11.33L15.77 11.33Q15.77 13.54 16.06 14.84Q16.34 16.15 17.42 16.15L17.42 16.15ZM27.70 18.65Q26.38 18.65 25.54 17.72Q24.70 16.80 24.70 15.24L24.70 15.24L24.70 5.11L28.06 4.82L28.06 13.87Q28.06 14.83 28.37 15.25Q28.68 15.67 29.33 15.67L29.33 15.67Q29.83 15.67 30.41 15.42Q30.98 15.17 31.44 14.62L31.44 14.62L31.44 5.11L34.82 4.82L34.82 18.19L31.44 18.48L31.44 16.75Q30.60 17.71 29.60 18.18Q28.61 18.65 27.70 18.65L27.70 18.65ZM37.73 22.54L37.73 5.11L41.09 4.82L41.09 6.14Q41.88 5.35 42.56 5.00Q43.25 4.66 44.16 4.66L44.16 4.66Q45.41 4.66 46.14 5.35Q46.87 6.05 47.20 7.52Q47.52 9.00 47.52 11.47L47.52 11.47Q47.52 14.86 46.74 16.75Q45.96 18.65 43.75 18.65L43.75 18.65Q42.74 18.65 42.14 18.26Q41.54 17.88 41.09 17.18L41.09 17.18L41.09 21.86L37.73 22.54ZM42.55 16.08Q43.34 16.08 43.74 15.14Q44.14 14.21 44.14 11.62L44.14 11.62Q44.14 9.14 43.74 8.11Q43.34 7.08 42.53 7.08L42.53 7.08Q41.69 7.08 41.09 8.02L41.09 8.02L41.09 15.00Q41.57 16.08 42.55 16.08L42.55 16.08ZM54.14 18.65Q51.74 18.65 50.47 16.74Q49.20 14.83 49.20 11.66L49.20 11.66Q49.20 8.45 50.50 6.55Q51.79 4.66 54.26 4.66L54.26 4.66Q56.62 4.66 57.86 6.55Q59.11 8.45 59.11 11.66L59.11 11.66Q59.11 11.86 59.04 11.94Q58.97 12.02 58.97 12.05L58.97 12.05L52.56 12.05Q52.56 13.61 52.97 14.89Q53.38 16.18 54.22 16.18L54.22 16.18Q55.15 16.18 55.61 15.10Q56.06 14.02 56.09 13.97L56.09 13.97L58.63 14.93Q58.13 16.66 57.02 17.65Q55.92 18.65 54.14 18.65L54.14 18.65ZM52.56 10.10L55.80 10.10Q55.80 8.66 55.42 7.82Q55.03 6.98 54.22 6.98L54.22 6.98Q53.81 6.98 53.42 7.39Q53.04 7.80 52.80 8.52Q52.56 9.24 52.56 10.10L52.56 10.10ZM70.75 18.19L67.22 18.48L67.22 0.34L76.37 0.34L76.08 3.17L70.75 3.17L70.75 7.87L74.52 7.87L74.52 10.85L70.75 10.85L70.75 18.19ZM82.34 18.65Q79.94 18.65 78.67 16.74Q77.40 14.83 77.40 11.66L77.40 11.66Q77.40 8.45 78.70 6.55Q79.99 4.66 82.46 4.66L82.46 4.66Q84.82 4.66 86.06 6.55Q87.31 8.45 87.31 11.66L87.31 11.66Q87.31 11.86 87.24 11.94Q87.17 12.02 87.17 12.05L87.17 12.05L80.76 12.05Q80.76 13.61 81.17 14.89Q81.58 16.18 82.42 16.18L82.42 16.18Q83.35 16.18 83.81 15.10Q84.26 14.02 84.29 13.97L84.29 13.97L86.83 14.93Q86.33 16.66 85.22 17.65Q84.12 18.65 82.34 18.65L82.34 18.65ZM80.76 10.10L84 10.10Q84 8.66 83.62 7.82Q83.23 6.98 82.42 6.98L82.42 6.98Q82.01 6.98 81.62 7.39Q81.24 7.80 81 8.52Q80.76 9.24 80.76 10.10L80.76 10.10ZM92.26 18.65Q90.94 18.65 90.10 17.72Q89.26 16.80 89.26 15.24L89.26 15.24L89.26 5.11L92.62 4.82L92.62 13.87Q92.62 14.83 92.93 15.25Q93.24 15.67 93.89 15.67L93.89 15.67Q94.39 15.67 94.97 15.42Q95.54 15.17 96 14.62L96 14.62L96 5.11L99.38 4.82L99.38 18.19L96 18.48L96 16.75Q95.16 17.71 94.16 18.18Q93.17 18.65 92.26 18.65L92.26 18.65ZM104.16 18.34L100.82 18.34L105.31 9.19L101.02 0.34L105.22 0.34L107.30 5.02L109.46 0.34L112.82 0.34L108.77 8.52L113.42 18.34L109.25 18.34L106.70 12.70L104.16 18.34ZM122.71 18.34L114.36 18.34L114.36 16.22L118.90 7.46L114.55 7.46L114.84 4.82L122.64 4.82L122.64 6.84L118.18 15.67L123.00 15.67L122.71 18.34Z" transform="translate(0, 47)"></path></svg>